# Made in Blockbench 4.9.4
mtllib large_cogwheel.mtl

o GearCaseInnerRotated
v 0.8838834764831844 0.5859375 -5.551115123125783e-17
v -5.551115123125783e-17 0.5859375 -0.8838834764831844
v 0.8838834764831844 0.4140625 -5.551115123125783e-17
v -5.551115123125783e-17 0.4140625 -0.8838834764831844
v -0.8838834764831844 0.5859375 0
v 0 0.5859375 0.8838834764831844
v -0.8838834764831844 0.4140625 0
v 0 0.4140625 0.8838834764831844
vt 0.2734375 0.46875
vt 0.4296875 0.46875
vt 0.4296875 0.4453125
vt 0.2734375 0.4453125
vt 0.4296875 0.46875
vt 0.5859375 0.46875
vt 0.5859375 0.4453125
vt 0.4296875 0.4453125
vt 0.546875 0.90625
vt 0.703125 0.90625
vt 0.703125 0.8828125
vt 0.546875 0.8828125
vt 0.546875 0.8828125
vt 0.703125 0.8828125
vt 0.703125 0.859375
vt 0.546875 0.859375
vt 0.15625 0.84375
vt 0 0.84375
vt 0 1
vt 0.15625 1
vt 0.15625 0.84375
vt 0 0.84375
vt 0 0.6875
vt 0.15625 0.6875
vn -0.7071067811865476 0 -0.7071067811865475
vn 0.7071067811865475 0 -0.7071067811865476
vn 0.7071067811865476 0 0.7071067811865475
vn -0.7071067811865475 0 0.7071067811865476
vn 0 1 0
vn 0 -1 0
usemtl m_c45ce66b-42fc-1894-42d7-49df36b897cc
f 7/3/1 5/2/1 2/1/1
f 4/4/1 7/3/1 2/1/1
f 4/7/2 2/6/2 1/5/2
f 3/8/2 4/7/2 1/5/2
f 3/11/3 1/10/3 6/9/3
f 8/12/3 3/11/3 6/9/3
f 8/15/4 6/14/4 5/13/4
f 7/16/4 8/15/4 5/13/4
f 1/19/5 2/18/5 5/17/5
f 6/20/5 1/19/5 5/17/5
f 4/23/6 3/22/6 8/21/6
f 7/24/6 4/23/6 8/21/6
o Axis
v 0.125 1 0.125
v 0.125 1 -0.125
v 0.125 0 0.125
v 0.125 0 -0.125
v -0.125 1 -0.125
v -0.125 1 0.125
v -0.125 0 -0.125
v -0.125 0 0.125
vt 0.2734375 0.640625
vt 0.3046875 0.640625
vt 0.3046875 0.515625
vt 0.2734375 0.515625
vt 0.3046875 0.640625
vt 0.3359375 0.640625
vt 0.3359375 0.515625
vt 0.3046875 0.515625
vt 0 0.578125
vt 0.03125 0.578125
vt 0.03125 0.453125
vt 0 0.453125
vt 0.03125 0.578125
vt 0.0625 0.578125
vt 0.0625 0.453125
vt 0.03125 0.453125
vt 0.3046875 0.484375
vt 0.2734375 0.484375
vt 0.2734375 0.515625
vt 0.3046875 0.515625
vt 0.3359375 0.515625
vt 0.3046875 0.515625
vt 0.3046875 0.484375
vt 0.3359375 0.484375
vn 0 0 -1
vn 1 0 0
vn 0 0 1
vn -1 0 0
vn 0 1 0
vn 0 -1 0
usemtl m_c45ce66b-42fc-1894-42d7-49df36b897cc
f 15/27/7 13/26/7 10/25/7
f 12/28/7 15/27/7 10/25/7
f 12/31/8 10/30/8 9/29/8
f 11/32/8 12/31/8 9/29/8
f 11/35/9 9/34/9 14/33/9
f 16/36/9 11/35/9 14/33/9
f 16/39/10 14/38/10 13/37/10
f 15/40/10 16/39/10 13/37/10
f 9/43/11 10/42/11 13/41/11
f 14/44/11 9/43/11 13/41/11
f 12/47/12 11/46/12 16/45/12
f 15/48/12 12/47/12 16/45/12
o Gear2
v 0.9020136335135587 0.5921875000000001 -0.2721520116693385
v 0.830260489945104 0.5921875000000001 -0.44537942401520475
v 0.9020136335135587 0.4078125 -0.2721520116693385
v 0.830260489945104 0.4078125 -0.44537942401520475
v -0.9020136335135586 0.5921875000000001 0.27215201166933856
v -0.8302604899451042 0.5921875000000001 0.4453794240152047
v -0.9020136335135586 0.4078125 0.27215201166933856
v -0.8302604899451042 0.4078125 0.4453794240152047
vt 0.109375 0.6875
vt 0.34375 0.6875
vt 0.34375 0.6640625
vt 0.109375 0.6640625
vt 0.109375 0.40625
vt 0.1328125 0.40625
vt 0.1328125 0.3828125
vt 0.109375 0.3828125
vt 0.3125 0.890625
vt 0.546875 0.890625
vt 0.546875 0.8671875
vt 0.3125 0.8671875
vt 0.1328125 0.40625
vt 0.15625 0.40625
vt 0.15625 0.3828125
vt 0.1328125 0.3828125
vt 0.546875 0.84375
vt 0.3125 0.84375
vt 0.3125 0.8671875
vt 0.546875 0.8671875
vt 0.546875 0.84375
vt 0.3125 0.84375
vt 0.3125 0.8203125
vt 0.546875 0.8203125
vn -0.3826834323650897 0 -0.9238795325112867
vn 0.9238795325112867 0 -0.3826834323650897
vn 0.3826834323650897 0 0.9238795325112867
vn -0.9238795325112867 0 0.3826834323650897
vn 0 1 0
vn 0 -1 0
usemtl m_c45ce66b-42fc-1894-42d7-49df36b897cc
f 23/51/13 21/50/13 18/49/13
f 20/52/13 23/51/13 18/49/13
f 20/55/14 18/54/14 17/53/14
f 19/56/14 20/55/14 17/53/14
f 19/59/15 17/58/15 22/57/15
f 24/60/15 19/59/15 22/57/15
f 24/63/16 22/62/16 21/61/16
f 23/64/16 24/63/16 21/61/16
f 17/67/17 18/66/17 21/65/17
f 22/68/17 17/67/17 21/65/17
f 20/71/18 19/70/18 24/69/18
f 23/72/18 20/71/18 24/69/18
o Gear3
v 0.830260489945104 0.5921875000000001 0.4453794240152047
v 0.9020136335135587 0.5921875000000001 0.27215201166933856
v 0.830260489945104 0.4078125 0.4453794240152047
v 0.9020136335135587 0.4078125 0.27215201166933856
v -0.8302604899451042 0.5921875000000001 -0.44537942401520475
v -0.9020136335135586 0.5921875000000001 -0.2721520116693385
v -0.8302604899451042 0.4078125 -0.44537942401520475
v -0.9020136335135586 0.4078125 -0.2721520116693385
vt 0.3125 0.8203125
vt 0.546875 0.8203125
vt 0.546875 0.796875
vt 0.3125 0.796875
vt 0.15625 0.40625
vt 0.1796875 0.40625
vt 0.1796875 0.3828125
vt 0.15625 0.3828125
vt 0.3125 0.796875
vt 0.546875 0.796875
vt 0.546875 0.7734375
vt 0.3125 0.7734375
vt 0.1796875 0.40625
vt 0.203125 0.40625
vt 0.203125 0.3828125
vt 0.1796875 0.3828125
vt 0.546875 0.75
vt 0.3125 0.75
vt 0.3125 0.7734375
vt 0.546875 0.7734375
vt 0.546875 0.75
vt 0.3125 0.75
vt 0.3125 0.7265625
vt 0.546875 0.7265625
vn 0.3826834323650897 0 -0.9238795325112867
vn 0.9238795325112867 0 0.3826834323650897
vn -0.3826834323650897 0 0.9238795325112867
vn -0.9238795325112867 0 -0.3826834323650897
vn 0 1 0
vn 0 -1 0
usemtl m_c45ce66b-42fc-1894-42d7-49df36b897cc
f 31/75/19 29/74/19 26/73/19
f 28/76/19 31/75/19 26/73/19
f 28/79/20 26/78/20 25/77/20
f 27/80/20 28/79/20 25/77/20
f 27/83/21 25/82/21 30/81/21
f 32/84/21 27/83/21 30/81/21
f 32/87/22 30/86/22 29/85/22
f 31/88/22 32/87/22 29/85/22
f 25/91/23 26/90/23 29/89/23
f 30/92/23 25/91/23 29/89/23
f 28/95/24 27/94/24 32/93/24
f 31/96/24 28/95/24 32/93/24
o Gear4
v 0.4453794240152047 0.5921875000000001 0.830260489945104
v -0.2721520116693385 0.5921875000000001 -0.9020136335135586
v 0.4453794240152047 0.4078125 0.830260489945104
v -0.2721520116693385 0.4078125 -0.9020136335135586
v -0.44537942401520475 0.5921875000000001 -0.8302604899451042
v 0.27215201166933856 0.5921875000000001 0.9020136335135587
v -0.44537942401520475 0.4078125 -0.8302604899451042
v 0.27215201166933856 0.4078125 0.9020136335135587
vt 0.203125 0.40625
vt 0.2265625 0.40625
vt 0.2265625 0.3828125
vt 0.203125 0.3828125
vt 0.3125 0.7265625
vt 0.546875 0.7265625
vt 0.546875 0.703125
vt 0.3125 0.703125
vt 0.2265625 0.40625
vt 0.25 0.40625
vt 0.25 0.3828125
vt 0.2265625 0.3828125
vt 0.109375 0.6640625
vt 0.34375 0.6640625
vt 0.34375 0.640625
vt 0.109375 0.640625
vt 0.3671875 0.46875
vt 0.34375 0.46875
vt 0.34375 0.703125
vt 0.3671875 0.703125
vt 0.1328125 0.640625
vt 0.109375 0.640625
vt 0.109375 0.40625
vt 0.1328125 0.40625
vn -0.3826834323650897 0 -0.9238795325112867
vn 0.9238795325112867 0 -0.3826834323650897
vn 0.3826834323650897 0 0.9238795325112867
vn -0.9238795325112867 0 0.3826834323650897
vn 0 1 0
vn 0 -1 0
usemtl m_c45ce66b-42fc-1894-42d7-49df36b897cc
f 39/99/25 37/98/25 34/97/25
f 36/100/25 39/99/25 34/97/25
f 36/103/26 34/102/26 33/101/26
f 35/104/26 36/103/26 33/101/26
f 35/107/27 33/106/27 38/105/27
f 40/108/27 35/107/27 38/105/27
f 40/111/28 38/110/28 37/109/28
f 39/112/28 40/111/28 37/109/28
f 33/115/29 34/114/29 37/113/29
f 38/116/29 33/115/29 37/113/29
f 36/119/30 35/118/30 40/117/30
f 39/120/30 36/119/30 40/117/30
o GearCaseInner
v 0.625 0.5874999999999999 0.625
v 0.625 0.5874999999999999 -0.625
v 0.625 0.4125 0.625
v 0.625 0.4125 -0.625
v -0.625 0.5874999999999999 -0.625
v -0.625 0.5874999999999999 0.625
v -0.625 0.4125 -0.625
v -0.625 0.4125 0.625
vt 0.546875 0.859375
vt 0.703125 0.859375
vt 0.703125 0.8359375
vt 0.546875 0.8359375
vt 0.546875 0.8359375
vt 0.703125 0.8359375
vt 0.703125 0.8125
vt 0.546875 0.8125
vt 0.546875 0.8125
vt 0.703125 0.8125
vt 0.703125 0.7890625
vt 0.546875 0.7890625
vt 0.546875 0.7890625
vt 0.703125 0.7890625
vt 0.703125 0.765625
vt 0.546875 0.765625
vt 0.3125 0.84375
vt 0.15625 0.84375
vt 0.15625 1
vt 0.3125 1
vt 0.3125 0.84375
vt 0.15625 0.84375
vt 0.15625 0.6875
vt 0.3125 0.6875
vn 0 0 -1
vn 1 0 0
vn 0 0 1
vn -1 0 0
vn 0 1 0
vn 0 -1 0
usemtl m_c45ce66b-42fc-1894-42d7-49df36b897cc
f 47/123/31 45/122/31 42/121/31
f 44/124/31 47/123/31 42/121/31
f 44/127/32 42/126/32 41/125/32
f 43/128/32 44/127/32 41/125/32
f 43/131/33 41/130/33 46/129/33
f 48/132/33 43/131/33 46/129/33
f 48/135/34 46/134/34 45/133/34
f 47/136/34 48/135/34 45/133/34
f 41/139/35 42/138/35 45/137/35
f 46/140/35 41/139/35 45/137/35
f 44/143/36 43/142/36 48/141/36
f 47/144/36 44/143/36 48/141/36
o GearCaseOuter
v 0.4375 0.6265624999999999 0.4375
v 0.4375 0.6265624999999999 -0.4375
v 0.4375 0.3734375 0.4375
v 0.4375 0.3734375 -0.4375
v -0.4375 0.6265624999999999 -0.4375
v -0.4375 0.6265624999999999 0.4375
v -0.4375 0.3734375 -0.4375
v -0.4375 0.3734375 0.4375
vt 0 0.453125
vt 0.109375 0.453125
vt 0.109375 0.421875
vt 0 0.421875
vt 0.546875 0.765625
vt 0.65625 0.765625
vt 0.65625 0.734375
vt 0.546875 0.734375
vt 0.546875 0.734375
vt 0.65625 0.734375
vt 0.65625 0.703125
vt 0.546875 0.703125
vt 0.2734375 0.4453125
vt 0.3828125 0.4453125
vt 0.3828125 0.4140625
vt 0.2734375 0.4140625
vt 0.109375 0.578125
vt 0 0.578125
vt 0 0.6875
vt 0.109375 0.6875
vt 0.421875 1
vt 0.3125 1
vt 0.3125 0.890625
vt 0.421875 0.890625
vn 0 0 -1
vn 1 0 0
vn 0 0 1
vn -1 0 0
vn 0 1 0
vn 0 -1 0
usemtl m_c45ce66b-42fc-1894-42d7-49df36b897cc
f 55/147/37 53/146/37 50/145/37
f 52/148/37 55/147/37 50/145/37
f 52/151/38 50/150/38 49/149/38
f 51/152/38 52/151/38 49/149/38
f 51/155/39 49/154/39 54/153/39
f 56/156/39 51/155/39 54/153/39
f 56/159/40 54/158/40 53/157/40
f 55/160/40 56/159/40 53/157/40
f 49/163/41 50/162/41 53/161/41
f 54/164/41 49/163/41 53/161/41
f 52/167/42 51/166/42 56/165/42
f 55/168/42 52/167/42 56/165/42
o GearCaseOuter
v -0.4375 0.6265624999999999 0.4375
v -0.4375 0.6265624999999999 -0.4375
v -0.4375 0.3734375 0.4375
v -0.4375 0.3734375 -0.4375
v -0.5625 0.6265624999999999 -0.4375
v -0.5625 0.6265624999999999 0.4375
v -0.5625 0.3734375 -0.4375
v -0.5625 0.3734375 0.4375
vt 0.6015625 0.5625
vt 0.6171875 0.5625
vt 0.6171875 0.53125
vt 0.6015625 0.53125
vt 0.453125 0.3984375
vt 0.46875 0.3984375
vt 0.46875 0.3671875
vt 0.453125 0.3671875
vt 0.3828125 0.4453125
vt 0.4921875 0.4453125
vt 0.4921875 0.4140625
vt 0.3828125 0.4140625
vt 0.078125 0.46875
vt 0.0625 0.46875
vt 0.0625 0.578125
vt 0.078125 0.578125
vt 0.09375 0.578125
vt 0.078125 0.578125
vt 0.078125 0.46875
vt 0.09375 0.46875
vn 0 0 -1
vn 0 0 1
vn -1 0 0
vn 0 1 0
vn 0 -1 0
usemtl m_c45ce66b-42fc-1894-42d7-49df36b897cc
f 63/171/43 61/170/43 58/169/43
f 60/172/43 63/171/43 58/169/43
f 59/175/44 57/174/44 62/173/44
f 64/176/44 59/175/44 62/173/44
f 64/179/45 62/178/45 61/177/45
f 63/180/45 64/179/45 61/177/45
f 57/183/46 58/182/46 61/181/46
f 62/184/46 57/183/46 61/181/46
f 60/187/47 59/186/47 64/185/47
f 63/188/47 60/187/47 64/185/47
o GearCaseOuter
v 0.4375 0.6265624999999999 -0.4375
v 0.4375 0.6265624999999999 -0.5625
v 0.4375 0.3734375 -0.4375
v 0.4375 0.3734375 -0.5625
v -0.4375 0.6265624999999999 -0.5625
v -0.4375 0.6265624999999999 -0.4375
v -0.4375 0.3734375 -0.5625
v -0.4375 0.3734375 -0.4375
vt 0.4921875 0.4453125
vt 0.6015625 0.4453125
vt 0.6015625 0.4140625
vt 0.4921875 0.4140625
vt 0.46875 0.3984375
vt 0.484375 0.3984375
vt 0.484375 0.3671875
vt 0.46875 0.3671875
vt 0.6015625 0.53125
vt 0.6171875 0.53125
vt 0.6171875 0.5
vt 0.6015625 0.5
vt 0.53125 0.890625
vt 0.421875 0.890625
vt 0.421875 0.90625
vt 0.53125 0.90625
vt 0.4921875 0.4140625
vt 0.3828125 0.4140625
vt 0.3828125 0.3984375
vt 0.4921875 0.3984375
vn 0 0 -1
vn 1 0 0
vn -1 0 0
vn 0 1 0
vn 0 -1 0
usemtl m_c45ce66b-42fc-1894-42d7-49df36b897cc
f 71/191/48 69/190/48 66/189/48
f 68/192/48 71/191/48 66/189/48
f 68/195/49 66/194/49 65/193/49
f 67/196/49 68/195/49 65/193/49
f 72/199/50 70/198/50 69/197/50
f 71/200/50 72/199/50 69/197/50
f 65/203/51 66/202/51 69/201/51
f 70/204/51 65/203/51 69/201/51
f 68/207/52 67/206/52 72/205/52
f 71/208/52 68/207/52 72/205/52
o GearCaseOuter
v 0.5625 0.6265624999999999 0.4375
v 0.5625 0.6265624999999999 -0.4375
v 0.5625 0.3734375 0.4375
v 0.5625 0.3734375 -0.4375
v 0.4375 0.6265624999999999 -0.4375
v 0.4375 0.6265624999999999 0.4375
v 0.4375 0.3734375 -0.4375
v 0.4375 0.3734375 0.4375
vt 0.6015625 0.5
vt 0.6171875 0.5
vt 0.6171875 0.46875
vt 0.6015625 0.46875
vt 0 0.421875
vt 0.109375 0.421875
vt 0.109375 0.390625
vt 0 0.390625
vt 0.5078125 0.3984375
vt 0.5234375 0.3984375
vt 0.5234375 0.3671875
vt 0.5078125 0.3671875
vt 0.109375 0.46875
vt 0.09375 0.46875
vt 0.09375 0.578125
vt 0.109375 0.578125
vt 0.5078125 0.4140625
vt 0.4921875 0.4140625
vt 0.4921875 0.3046875
vt 0.5078125 0.3046875
vn 0 0 -1
vn 1 0 0
vn 0 0 1
vn 0 1 0
vn 0 -1 0
usemtl m_c45ce66b-42fc-1894-42d7-49df36b897cc
f 79/211/53 77/210/53 74/209/53
f 76/212/53 79/211/53 74/209/53
f 76/215/54 74/214/54 73/213/54
f 75/216/54 76/215/54 73/213/54
f 75/219/55 73/218/55 78/217/55
f 80/220/55 75/219/55 78/217/55
f 73/223/56 74/222/56 77/221/56
f 78/224/56 73/223/56 77/221/56
f 76/227/57 75/226/57 80/225/57
f 79/228/57 76/227/57 80/225/57
o GearCaseOuter
v 0.4375 0.6265624999999999 0.5625
v 0.4375 0.6265624999999999 0.4375
v 0.4375 0.3734375 0.5625
v 0.4375 0.3734375 0.4375
v -0.4375 0.6265624999999999 0.4375
v -0.4375 0.6265624999999999 0.5625
v -0.4375 0.3734375 0.4375
v -0.4375 0.3734375 0.5625
vt 0.5234375 0.3984375
vt 0.5390625 0.3984375
vt 0.5390625 0.3671875
vt 0.5234375 0.3671875
vt 0.2734375 0.4140625
vt 0.3828125 0.4140625
vt 0.3828125 0.3828125
vt 0.2734375 0.3828125
vt 0.5390625 0.3984375
vt 0.5546875 0.3984375
vt 0.5546875 0.3671875
vt 0.5390625 0.3671875
vt 0.6171875 0.3984375
vt 0.5078125 0.3984375
vt 0.5078125 0.4140625
vt 0.6171875 0.4140625
vt 0.6953125 0.46875
vt 0.5859375 0.46875
vt 0.5859375 0.453125
vt 0.6953125 0.453125
vn 1 0 0
vn 0 0 1
vn -1 0 0
vn 0 1 0
vn 0 -1 0
usemtl m_c45ce66b-42fc-1894-42d7-49df36b897cc
f 84/231/58 82/230/58 81/229/58
f 83/232/58 84/231/58 81/229/58
f 83/235/59 81/234/59 86/233/59
f 88/236/59 83/235/59 86/233/59
f 88/239/60 86/238/60 85/237/60
f 87/240/60 88/239/60 85/237/60
f 81/243/61 82/242/61 85/241/61
f 86/244/61 81/243/61 85/241/61
f 84/247/62 83/246/62 88/245/62
f 87/248/62 84/247/62 88/245/62
o Gear
v -0.2721520116693385 0.5921875000000001 0.9020136335135587
v 0.4453794240152047 0.5921875000000001 -0.8302604899451042
v -0.2721520116693385 0.4078125 0.9020136335135587
v 0.4453794240152047 0.4078125 -0.8302604899451042
v 0.27215201166933856 0.5921875000000001 -0.9020136335135586
v -0.44537942401520475 0.5921875000000001 0.830260489945104
v 0.27215201166933856 0.4078125 -0.9020136335135586
v -0.44537942401520475 0.4078125 0.830260489945104
vt 0.25 0.40625
vt 0.2734375 0.40625
vt 0.2734375 0.3828125
vt 0.25 0.3828125
vt 0.3671875 0.703125
vt 0.6015625 0.703125
vt 0.6015625 0.6796875
vt 0.3671875 0.6796875
vt 0.6015625 0.703125
vt 0.625 0.703125
vt 0.625 0.6796875
vt 0.6015625 0.6796875
vt 0.3671875 0.6796875
vt 0.6015625 0.6796875
vt 0.6015625 0.65625
vt 0.3671875 0.65625
vt 0.15625 0.40625
vt 0.1328125 0.40625
vt 0.1328125 0.640625
vt 0.15625 0.640625
vt 0.1796875 0.640625
vt 0.15625 0.640625
vt 0.15625 0.40625
vt 0.1796875 0.40625
vn 0.3826834323650897 0 -0.9238795325112867
vn 0.9238795325112867 0 0.3826834323650897
vn -0.3826834323650897 0 0.9238795325112867
vn -0.9238795325112867 0 -0.3826834323650897
vn 0 1 0
vn 0 -1 0
usemtl m_c45ce66b-42fc-1894-42d7-49df36b897cc
f 95/251/63 93/250/63 90/249/63
f 92/252/63 95/251/63 90/249/63
f 92/255/64 90/254/64 89/253/64
f 91/256/64 92/255/64 89/253/64
f 91/259/65 89/258/65 94/257/65
f 96/260/65 91/259/65 94/257/65
f 96/263/66 94/262/66 93/261/66
f 95/264/66 96/263/66 93/261/66
f 89/267/67 90/266/67 93/265/67
f 94/268/67 89/267/67 93/265/67
f 92/271/68 91/270/68 96/269/68
f 95/272/68 92/271/68 96/269/68
o Gear5
v 0.729203868098627 0.5921875000000001 -0.5966213466261495
v 0.5966213466261494 0.5921875000000001 -0.7292038680986271
v 0.729203868098627 0.4078125 -0.5966213466261495
v 0.5966213466261494 0.4078125 -0.7292038680986271
v -0.729203868098627 0.5921875000000001 0.5966213466261494
v -0.5966213466261494 0.5921875000000001 0.7292038680986273
v -0.729203868098627 0.4078125 0.5966213466261494
v -0.5966213466261494 0.4078125 0.7292038680986273
vt 0.3671875 0.65625
vt 0.6015625 0.65625
vt 0.6015625 0.6328125
vt 0.3671875 0.6328125
vt 0.6015625 0.6796875
vt 0.625 0.6796875
vt 0.625 0.65625
vt 0.6015625 0.65625
vt 0.3671875 0.6328125
vt 0.6015625 0.6328125
vt 0.6015625 0.609375
vt 0.3671875 0.609375
vt 0.6015625 0.65625
vt 0.625 0.65625
vt 0.625 0.6328125
vt 0.6015625 0.6328125
vt 0.6015625 0.5859375
vt 0.3671875 0.5859375
vt 0.3671875 0.609375
vt 0.6015625 0.609375
vt 0.6015625 0.5859375
vt 0.3671875 0.5859375
vt 0.3671875 0.5625
vt 0.6015625 0.5625
vn -0.7071067811865476 0 -0.7071067811865475
vn 0.7071067811865475 0 -0.7071067811865476
vn 0.7071067811865476 0 0.7071067811865475
vn -0.7071067811865475 0 0.7071067811865476
vn 0 1 0
vn 0 -1 0
usemtl m_c45ce66b-42fc-1894-42d7-49df36b897cc
f 103/275/69 101/274/69 98/273/69
f 100/276/69 103/275/69 98/273/69
f 100/279/70 98/278/70 97/277/70
f 99/280/70 100/279/70 97/277/70
f 99/283/71 97/282/71 102/281/71
f 104/284/71 99/283/71 102/281/71
f 104/287/72 102/286/72 101/285/72
f 103/288/72 104/287/72 101/285/72
f 97/291/73 98/290/73 101/289/73
f 102/292/73 97/291/73 101/289/73
f 100/295/74 99/294/74 104/293/74
f 103/296/74 100/295/74 104/293/74
o Gear6
v 0.7292038680986273 0.5921875000000001 0.5966213466261494
v -0.5966213466261495 0.5921875000000001 -0.729203868098627
v 0.7292038680986273 0.4078125 0.5966213466261494
v -0.5966213466261495 0.4078125 -0.729203868098627
v -0.7292038680986271 0.5921875000000001 -0.5966213466261494
v 0.5966213466261494 0.5921875000000001 0.729203868098627
v -0.7292038680986271 0.4078125 -0.5966213466261494
v 0.5966213466261494 0.4078125 0.729203868098627
vt 0.6015625 0.6328125
vt 0.625 0.6328125
vt 0.625 0.609375
vt 0.6015625 0.609375
vt 0.421875 1
vt 0.65625 1
vt 0.65625 0.9765625
vt 0.421875 0.9765625
vt 0.3828125 0.3984375
vt 0.40625 0.3984375
vt 0.40625 0.375
vt 0.3828125 0.375
vt 0.421875 0.9765625
vt 0.65625 0.9765625
vt 0.65625 0.953125
vt 0.421875 0.953125
vt 0.203125 0.40625
vt 0.1796875 0.40625
vt 0.1796875 0.640625
vt 0.203125 0.640625
vt 0.2265625 0.640625
vt 0.203125 0.640625
vt 0.203125 0.40625
vt 0.2265625 0.40625
vn -0.7071067811865476 0 -0.7071067811865475
vn 0.7071067811865475 0 -0.7071067811865476
vn 0.7071067811865476 0 0.7071067811865475
vn -0.7071067811865475 0 0.7071067811865476
vn 0 1 0
vn 0 -1 0
usemtl m_c45ce66b-42fc-1894-42d7-49df36b897cc
f 111/299/75 109/298/75 106/297/75
f 108/300/75 111/299/75 106/297/75
f 108/303/76 106/302/76 105/301/76
f 107/304/76 108/303/76 105/301/76
f 107/307/77 105/306/77 110/305/77
f 112/308/77 107/307/77 110/305/77
f 112/311/78 110/310/78 109/309/78
f 111/312/78 112/311/78 109/309/78
f 105/315/79 106/314/79 109/313/79
f 110/316/79 105/315/79 109/313/79
f 108/319/80 107/318/80 112/317/80
f 111/320/80 108/319/80 112/317/80
o Gear7
v 0.9375 0.5921875000000001 0.09375
v 0.9375 0.5921875000000001 -0.09375
v 0.9375 0.4078125 0.09375
v 0.9375 0.4078125 -0.09375
v -0.9375 0.5921875000000001 -0.09375
v -0.9375 0.5921875000000001 0.09375
v -0.9375 0.4078125 -0.09375
v -0.9375 0.4078125 0.09375
vt 0.421875 0.953125
vt 0.65625 0.953125
vt 0.65625 0.9296875
vt 0.421875 0.9296875
vt 0.6015625 0.609375
vt 0.625 0.609375
vt 0.625 0.5859375
vt 0.6015625 0.5859375
vt 0.421875 0.9296875
vt 0.65625 0.9296875
vt 0.65625 0.90625
vt 0.421875 0.90625
vt 0.40625 0.3984375
vt 0.4296875 0.3984375
vt 0.4296875 0.375
vt 0.40625 0.375
vt 0.6015625 0.5390625
vt 0.3671875 0.5390625
vt 0.3671875 0.5625
vt 0.6015625 0.5625
vt 0.6015625 0.5390625
vt 0.3671875 0.5390625
vt 0.3671875 0.515625
vt 0.6015625 0.515625
vn 0 0 -1
vn 1 0 0
vn 0 0 1
vn -1 0 0
vn 0 1 0
vn 0 -1 0
usemtl m_c45ce66b-42fc-1894-42d7-49df36b897cc
f 119/323/81 117/322/81 114/321/81
f 116/324/81 119/323/81 114/321/81
f 116/327/82 114/326/82 113/325/82
f 115/328/82 116/327/82 113/325/82
f 115/331/83 113/330/83 118/329/83
f 120/332/83 115/331/83 118/329/83
f 120/335/84 118/334/84 117/333/84
f 119/336/84 120/335/84 117/333/84
f 113/339/85 114/338/85 117/337/85
f 118/340/85 113/339/85 117/337/85
f 116/343/86 115/342/86 120/341/86
f 119/344/86 116/343/86 120/341/86
o Gear8
v 0.09375 0.5921875000000001 0.9375
v 0.09375 0.5921875000000001 -0.9375
v 0.09375 0.4078125 0.9375
v 0.09375 0.4078125 -0.9375
v -0.09375 0.5921875000000001 -0.9375
v -0.09375 0.5921875000000001 0.9375
v -0.09375 0.4078125 -0.9375
v -0.09375 0.4078125 0.9375
vt 0.6015625 0.5859375
vt 0.625 0.5859375
vt 0.625 0.5625
vt 0.6015625 0.5625
vt 0.3671875 0.515625
vt 0.6015625 0.515625
vt 0.6015625 0.4921875
vt 0.3671875 0.4921875
vt 0.4296875 0.3984375
vt 0.453125 0.3984375
vt 0.453125 0.375
vt 0.4296875 0.375
vt 0.3671875 0.4921875
vt 0.6015625 0.4921875
vt 0.6015625 0.46875
vt 0.3671875 0.46875
vt 0.25 0.40625
vt 0.2265625 0.40625
vt 0.2265625 0.640625
vt 0.25 0.640625
vt 0.2734375 0.640625
vt 0.25 0.640625
vt 0.25 0.40625
vt 0.2734375 0.40625
vn 0 0 -1
vn 1 0 0
vn 0 0 1
vn -1 0 0
vn 0 1 0
vn 0 -1 0
usemtl m_c45ce66b-42fc-1894-42d7-49df36b897cc
f 127/347/87 125/346/87 122/345/87
f 124/348/87 127/347/87 122/345/87
f 124/351/88 122/350/88 121/349/88
f 123/352/88 124/351/88 121/349/88
f 123/355/89 121/354/89 126/353/89
f 128/356/89 123/355/89 126/353/89
f 128/359/90 126/358/90 125/357/90
f 127/360/90 128/359/90 125/357/90
f 121/363/91 122/362/91 125/361/91
f 126/364/91 121/363/91 125/361/91
f 124/367/92 123/366/92 128/365/92
f 127/368/92 124/367/92 128/365/92